<svg xmlns="http://www.w3.org/2000/svg" viewBox="0 0 24 24" fill="none" stroke="currentColor" stroke-width="2" stroke-linecap="round" stroke-linejoin="round" class="text-green-600">
  <path d="M12 22c4.97 0 9-4.03 9-9s-4.03-9-9-9c0 4.97-4.03 9-9 9s4.03 9 9 9z"></path>
  <path d="M13 5c0 2.21-1.79 4-4 4-1.76 0-3.22-1.14-3.78-2.71.12-.33.28-.65.48-.95C6.37 4.5 7.43 4 8.5 4c1.5 0 2.85.92 3.4 2.31.09.22.16.45.1.69z"></path>
  <path d="M19 15c0 2.21-1.79 4-4 4-1.76 0-3.22-1.14-3.78-2.71.12-.33.28-.65.48-.95.67-.83 1.73-1.34 2.8-1.34 1.5 0 2.85.92 3.4 2.31.09.22.16.45.1.69z"></path>
  <path d="M12 9v5"></path>
  <path d="M16 14l-4 5"></path>
  <path d="M8 14l4 5"></path>
</svg>
